<svg width="1080" height="1920" viewBox="0 0 1080 1920" fill="none" xmlns="http://www.w3.org/2000/svg">
<g clip-path="url(#clip0_3_2)">
<rect width="1920" height="1080" transform="translate(1080) rotate(90)" fill="white"/>
<g opacity="0.15" filter="url(#filter0_d_3_2)">
<ellipse cx="540.5" cy="849.5" rx="653.5" ry="684.5" fill="white"/>
</g>
<g opacity="0.2" filter="url(#filter1_d_3_2)">
<ellipse cx="540.5" cy="607.5" rx="653.5" ry="684.5" fill="white"/>
</g>
<g opacity="0.4" filter="url(#filter2_d_3_2)">
<ellipse cx="540.5" cy="307.5" rx="653.5" ry="684.5" fill="white"/>
</g>
<g filter="url(#filter3_d_3_2)">
<circle cx="541.5" cy="135.5" r="653.5" fill="white"/>
</g>
<g style="mix-blend-mode:multiply" opacity="0.1">
<circle cx="541" cy="148" r="644" fill="#767676" fill-opacity="0.36"/>
<mask id="mask0_3_2" style="mask-type:alpha" maskUnits="userSpaceOnUse" x="-103" y="-496" width="1288" height="1288">
<circle cx="541" cy="148" r="644" fill="#E0F4F5"/>
</mask>
<g mask="url(#mask0_3_2)">
<mask id="mask1_3_2" style="mask-type:alpha" maskUnits="userSpaceOnUse" x="54" y="-271" width="1044" height="1166">
<path d="M771.068 337.483L959.697 10.7683C964.787 1.95344 966.166 -8.5221 963.531 -18.3538C960.897 -28.1855 954.465 -36.568 945.65 -41.6573C936.835 -46.7466 926.359 -48.1257 916.528 -45.4913C906.696 -42.8569 898.313 -36.4248 893.224 -27.6099L704.595 299.105C689.117 281 679.634 258.541 677.455 234.821C675.276 211.101 680.507 187.29 692.427 166.668L826.751 -65.9881C831.84 -74.803 833.22 -85.2786 830.585 -95.1103C827.951 -104.942 821.519 -113.324 812.704 -118.414C803.889 -123.503 793.413 -124.882 783.582 -122.248C773.75 -119.613 765.367 -113.181 760.278 -104.366L625.954 128.289C603.828 166.595 595.616 211.369 602.708 255.033C609.801 298.698 631.761 338.571 664.874 367.905L394.307 836.54C389.218 845.355 387.839 855.83 390.473 865.662C393.108 875.493 399.54 883.876 408.355 888.965C417.17 894.055 427.645 895.434 437.477 892.799C447.308 890.165 455.691 883.733 460.78 874.918L731.347 406.283C773.307 420.292 818.818 419.374 860.179 403.684C901.54 387.994 936.209 358.495 958.32 320.18L1092.64 87.5248C1097.73 78.7099 1099.11 68.2343 1096.48 58.4026C1093.84 48.5709 1087.41 40.1884 1078.6 35.0991C1069.78 30.0099 1059.31 28.6307 1049.47 31.2651C1039.64 33.8995 1031.26 40.3317 1026.17 49.1465L891.846 281.802C879.948 302.437 861.942 318.873 840.31 328.845C818.679 338.818 794.487 341.836 771.068 337.483ZM522.289 -152.696L292.211 245.81L160.595 169.821C211.257 90.0552 262.753 23.8881 314.884 -28.795C362.472 -76.8333 431.51 -118.426 522.251 -152.629L522.289 -152.696ZM253.833 312.283L61.942 644.649C56.8528 653.463 55.4736 663.939 58.108 673.771C60.7424 683.602 67.1746 691.985 75.9895 697.074C84.8043 702.163 95.2799 703.543 105.112 700.908C114.943 698.274 123.326 691.842 128.415 683.027L645.437 -212.482C646.138 -213.695 646.391 -215.115 646.154 -216.496L637.487 -267.004C637.073 -269.418 634.606 -270.896 632.282 -270.123L580.048 -252.738C437.787 -210.966 331.152 -154.299 260.353 -82.7909C189.554 -11.2831 120.885 82.0173 54.4141 197.149L253.833 312.283Z" fill="#1A1A1A"/>
</mask>
<g mask="url(#mask1_3_2)">
<rect width="449.628" height="1124.07" transform="matrix(-0.866025 -0.5 -0.5 0.866025 724.323 -220.994)" fill="#5F5F5F"/>
</g>
<mask id="mask2_3_2" style="mask-type:alpha" maskUnits="userSpaceOnUse" x="185" y="-500" width="902" height="1145">
<path d="M787.738 245.096L609.354 554.066C604.541 562.402 596.614 568.485 587.316 570.976C578.019 573.468 568.112 572.163 559.776 567.351C551.44 562.538 545.357 554.61 542.866 545.313C540.374 536.015 541.678 526.108 546.491 517.772L724.875 208.802C702.729 204.686 679.851 207.54 659.394 216.971C638.938 226.402 621.91 241.945 610.657 261.459L483.629 481.478C478.816 489.815 470.888 495.897 461.591 498.389C452.293 500.88 442.386 499.576 434.05 494.763C425.714 489.95 419.631 482.023 417.14 472.725C414.649 463.427 415.953 453.521 420.766 445.185L547.794 225.165C568.704 188.931 601.49 161.035 640.605 146.197C679.719 131.359 722.759 130.49 762.44 143.739L1018.31 -299.443C1023.12 -307.78 1031.05 -313.862 1040.35 -316.354C1049.65 -318.845 1059.55 -317.541 1067.89 -312.728C1076.23 -307.915 1082.31 -299.988 1084.8 -290.69C1087.29 -281.392 1085.99 -271.486 1081.17 -263.15L825.302 180.033C856.616 207.773 877.384 245.481 884.091 286.774C890.798 328.067 883.032 370.409 862.108 406.634L735.08 626.654C730.267 634.99 722.339 641.073 713.042 643.564C703.744 646.055 693.837 644.751 685.501 639.938C677.165 635.125 671.082 627.198 668.591 617.9C666.1 608.603 667.404 598.696 672.217 590.36L799.245 370.34C810.518 350.838 815.465 328.32 813.404 305.889C811.344 283.457 802.376 262.217 787.738 245.096ZM268.653 273.126L486.234 -103.736L361.766 -175.598C320.394 -96.3894 290.553 -22.9278 272.056 44.678C255.215 106.367 253.795 182.575 268.689 273.063L268.653 273.126ZM522.528 -166.599L703.997 -480.913C708.81 -489.249 716.737 -495.331 726.035 -497.823C735.333 -500.314 745.239 -499.01 753.576 -494.197C761.912 -489.384 767.994 -481.457 770.486 -472.159C772.977 -462.861 771.673 -452.955 766.86 -444.619L277.978 402.151C277.277 403.364 276.174 404.294 274.859 404.779L229.744 421.435C227.446 422.283 224.932 420.886 224.44 418.486L214.031 367.735C180.973 231.473 176.962 117.345 202.049 25.549C227.136 -66.2468 271.079 -166.602 333.94 -275.48L522.528 -166.599Z" fill="#1A1A1A"/>
</mask>
<g mask="url(#mask2_3_2)">
<rect x="742.322" y="696.963" width="425.208" height="1041.76" transform="rotate(-150 742.322 696.963)" fill="#5F5F5F"/>
</g>
</g>
</g>
<g filter="url(#filter4_d_3_2)">
<path d="M1526 2421.5C1526 2782.42 1083.88 3075 538.5 3075C-6.88104 3075 -449 2782.42 -449 2421.5C-449 2060.58 -3.88104 1826.5 541.5 1826.5C1086.88 1826.5 1526 2060.58 1526 2421.5Z" fill="white"/>
</g>
<circle cx="130" cy="130" r="36" fill="#15ABB1"/>
<mask id="mask3_3_2" style="mask-type:alpha" maskUnits="userSpaceOnUse" x="94" y="94" width="72" height="72">
<circle cx="130" cy="130" r="36" fill="#D9D9D9"/>
</mask>
<g mask="url(#mask3_3_2)">
<mask id="mask4_3_2" style="mask-type:alpha" maskUnits="userSpaceOnUse" x="102" y="107" width="60" height="65">
<path d="M142.861 140.592L153.406 122.329C153.69 121.836 153.767 121.25 153.62 120.701C153.473 120.151 153.113 119.683 152.62 119.398C152.128 119.114 151.542 119.036 150.992 119.184C150.443 119.331 149.974 119.691 149.69 120.183L139.145 138.447C138.28 137.435 137.75 136.179 137.628 134.853C137.506 133.527 137.799 132.196 138.465 131.044L145.974 118.038C146.258 117.545 146.335 116.96 146.188 116.41C146.041 115.86 145.681 115.392 145.189 115.107C144.696 114.823 144.11 114.746 143.561 114.893C143.011 115.04 142.542 115.4 142.258 115.893L134.749 128.898C133.512 131.039 133.053 133.542 133.45 135.983C133.846 138.424 135.074 140.653 136.925 142.293L121.8 168.49C121.515 168.983 121.438 169.568 121.586 170.118C121.733 170.667 122.092 171.136 122.585 171.42C123.078 171.705 123.664 171.782 124.213 171.635C124.763 171.487 125.231 171.128 125.516 170.635L140.641 144.438C142.986 145.221 145.53 145.17 147.842 144.293C150.155 143.416 152.093 141.767 153.329 139.625L160.837 126.619C161.122 126.127 161.199 125.541 161.052 124.991C160.904 124.442 160.545 123.973 160.052 123.689C159.559 123.404 158.974 123.327 158.424 123.474C157.875 123.622 157.406 123.981 157.122 124.474L149.613 137.48C148.948 138.633 147.941 139.552 146.732 140.109C145.523 140.667 144.17 140.836 142.861 140.592ZM128.954 113.191L116.093 135.468L108.735 131.22C111.567 126.761 114.446 123.062 117.36 120.117C120.02 117.432 123.88 115.107 128.952 113.195L128.954 113.191ZM113.947 139.184L103.221 157.763C102.936 158.256 102.859 158.841 103.006 159.391C103.153 159.94 103.513 160.409 104.006 160.694C104.499 160.978 105.084 161.055 105.634 160.908C106.183 160.761 106.652 160.401 106.936 159.908L135.383 110.637C135.716 110.06 135.837 109.384 135.724 108.727V108.727C135.527 107.579 134.354 106.876 133.248 107.244L132.183 107.599C124.231 109.934 118.27 113.101 114.312 117.099C110.354 121.096 106.516 126.312 102.8 132.747L113.947 139.184Z" fill="#1A1A1A"/>
</mask>
<g mask="url(#mask4_3_2)">
<rect width="25.1345" height="62.8362" transform="matrix(-0.866025 -0.5 -0.5 0.866025 140.248 109.372)" fill="white"/>
</g>
<mask id="mask5_3_2" style="mask-type:alpha" maskUnits="userSpaceOnUse" x="110" y="93" width="51" height="65">
<path d="M143.793 135.428L133.821 152.699C133.552 153.165 133.109 153.505 132.589 153.645C132.069 153.784 131.515 153.711 131.049 153.442C130.583 153.173 130.243 152.73 130.104 152.21C129.965 151.69 130.038 151.137 130.307 150.671L140.279 133.399C139.041 133.169 137.762 133.328 136.618 133.856C135.475 134.383 134.523 135.252 133.894 136.343L126.793 148.642C126.524 149.108 126.081 149.448 125.561 149.587C125.041 149.726 124.487 149.653 124.021 149.384C123.555 149.115 123.215 148.672 123.076 148.152C122.937 147.633 123.01 147.079 123.279 146.613L130.38 134.314C131.549 132.288 133.381 130.729 135.568 129.899C137.754 129.07 140.16 129.021 142.379 129.762L156.682 104.988C156.951 104.522 157.394 104.182 157.914 104.042C158.434 103.903 158.987 103.976 159.453 104.245C159.919 104.514 160.259 104.957 160.399 105.477C160.538 105.997 160.465 106.551 160.196 107.017L145.893 131.791C147.643 133.341 148.804 135.449 149.179 137.758C149.554 140.066 149.12 142.433 147.95 144.458L140.849 156.757C140.58 157.223 140.137 157.563 139.617 157.702C139.097 157.842 138.544 157.769 138.078 157.5C137.612 157.231 137.272 156.788 137.132 156.268C136.993 155.748 137.066 155.194 137.335 154.728L144.436 142.429C145.066 141.339 145.343 140.08 145.227 138.826C145.112 137.572 144.611 136.385 143.793 135.428ZM114.776 136.995L126.938 115.928L119.981 111.911C117.668 116.339 116 120.445 114.966 124.224C114.024 127.673 113.945 131.933 114.778 136.991L114.776 136.995ZM128.967 112.414L139.112 94.8435C139.381 94.3775 139.824 94.0375 140.343 93.8982C140.863 93.7589 141.417 93.8318 141.883 94.1009C142.349 94.3699 142.689 94.8131 142.828 95.3328C142.968 95.8526 142.895 96.4063 142.626 96.8723L115.724 143.468C115.409 144.013 114.912 144.432 114.321 144.65V144.65C113.288 145.032 112.157 144.403 111.935 143.324L111.722 142.283C109.874 134.666 109.65 128.286 111.052 123.155C112.455 118.024 114.911 112.414 118.425 106.327L128.967 112.414Z" fill="#1A1A1A"/>
</mask>
<g mask="url(#mask5_3_2)">
<rect x="141.255" y="160.688" width="23.7694" height="58.235" transform="rotate(-150 141.255 160.688)" fill="white"/>
</g>
</g>
</g>
<defs>
<filter id="filter0_d_3_2" x="-137" y="146" width="1355" height="1417" filterUnits="userSpaceOnUse" color-interpolation-filters="sRGB">
<feFlood flood-opacity="0" result="BackgroundImageFix"/>
<feColorMatrix in="SourceAlpha" type="matrix" values="0 0 0 0 0 0 0 0 0 0 0 0 0 0 0 0 0 0 127 0" result="hardAlpha"/>
<feOffset dy="5"/>
<feGaussianBlur stdDeviation="12"/>
<feComposite in2="hardAlpha" operator="out"/>
<feColorMatrix type="matrix" values="0 0 0 0 0.3675 0 0 0 0 0.3675 0 0 0 0 0.3675 0 0 0 0.39 0"/>
<feBlend mode="normal" in2="BackgroundImageFix" result="effect1_dropShadow_3_2"/>
<feBlend mode="normal" in="SourceGraphic" in2="effect1_dropShadow_3_2" result="shape"/>
</filter>
<filter id="filter1_d_3_2" x="-137" y="-96" width="1355" height="1417" filterUnits="userSpaceOnUse" color-interpolation-filters="sRGB">
<feFlood flood-opacity="0" result="BackgroundImageFix"/>
<feColorMatrix in="SourceAlpha" type="matrix" values="0 0 0 0 0 0 0 0 0 0 0 0 0 0 0 0 0 0 127 0" result="hardAlpha"/>
<feOffset dy="5"/>
<feGaussianBlur stdDeviation="12"/>
<feComposite in2="hardAlpha" operator="out"/>
<feColorMatrix type="matrix" values="0 0 0 0 0.3675 0 0 0 0 0.3675 0 0 0 0 0.3675 0 0 0 0.29 0"/>
<feBlend mode="normal" in2="BackgroundImageFix" result="effect1_dropShadow_3_2"/>
<feBlend mode="normal" in="SourceGraphic" in2="effect1_dropShadow_3_2" result="shape"/>
</filter>
<filter id="filter2_d_3_2" x="-137" y="-396" width="1355" height="1417" filterUnits="userSpaceOnUse" color-interpolation-filters="sRGB">
<feFlood flood-opacity="0" result="BackgroundImageFix"/>
<feColorMatrix in="SourceAlpha" type="matrix" values="0 0 0 0 0 0 0 0 0 0 0 0 0 0 0 0 0 0 127 0" result="hardAlpha"/>
<feOffset dy="5"/>
<feGaussianBlur stdDeviation="12"/>
<feComposite in2="hardAlpha" operator="out"/>
<feColorMatrix type="matrix" values="0 0 0 0 0.3675 0 0 0 0 0.3675 0 0 0 0 0.3675 0 0 0 0.29 0"/>
<feBlend mode="normal" in2="BackgroundImageFix" result="effect1_dropShadow_3_2"/>
<feBlend mode="normal" in="SourceGraphic" in2="effect1_dropShadow_3_2" result="shape"/>
</filter>
<filter id="filter3_d_3_2" x="-136" y="-537" width="1355" height="1355" filterUnits="userSpaceOnUse" color-interpolation-filters="sRGB">
<feFlood flood-opacity="0" result="BackgroundImageFix"/>
<feColorMatrix in="SourceAlpha" type="matrix" values="0 0 0 0 0 0 0 0 0 0 0 0 0 0 0 0 0 0 127 0" result="hardAlpha"/>
<feOffset dy="5"/>
<feGaussianBlur stdDeviation="12"/>
<feComposite in2="hardAlpha" operator="out"/>
<feColorMatrix type="matrix" values="0 0 0 0 0.0819397 0 0 0 0 0.670328 0 0 0 0 0.692448 0 0 0 0.25 0"/>
<feBlend mode="normal" in2="BackgroundImageFix" result="effect1_dropShadow_3_2"/>
<feBlend mode="normal" in="SourceGraphic" in2="effect1_dropShadow_3_2" result="shape"/>
</filter>
<filter id="filter4_d_3_2" x="-462" y="1807.5" width="2001" height="1274.5" filterUnits="userSpaceOnUse" color-interpolation-filters="sRGB">
<feFlood flood-opacity="0" result="BackgroundImageFix"/>
<feColorMatrix in="SourceAlpha" type="matrix" values="0 0 0 0 0 0 0 0 0 0 0 0 0 0 0 0 0 0 127 0" result="hardAlpha"/>
<feOffset dy="-6"/>
<feGaussianBlur stdDeviation="6.5"/>
<feComposite in2="hardAlpha" operator="out"/>
<feColorMatrix type="matrix" values="0 0 0 0 0 0 0 0 0 0 0 0 0 0 0 0 0 0 0.1 0"/>
<feBlend mode="normal" in2="BackgroundImageFix" result="effect1_dropShadow_3_2"/>
<feBlend mode="normal" in="SourceGraphic" in2="effect1_dropShadow_3_2" result="shape"/>
</filter>
<clipPath id="clip0_3_2">
<rect width="1920" height="1080" fill="white" transform="translate(1080) rotate(90)"/>
</clipPath>
</defs>
</svg>
